<?xml version="1.0" encoding="UTF-8" standalone="no"?>
<!-- Created with Inkscape (http://www.inkscape.org/) -->

<svg
   xmlns:dc="http://purl.org/dc/elements/1.1/"
   xmlns:cc="http://creativecommons.org/ns#"
   xmlns:rdf="http://www.w3.org/1999/02/22-rdf-syntax-ns#"
   xmlns:svg="http://www.w3.org/2000/svg"
   xmlns="http://www.w3.org/2000/svg"
   xmlns:sodipodi="http://sodipodi.sourceforge.net/DTD/sodipodi-0.dtd"
   xmlns:inkscape="http://www.inkscape.org/namespaces/inkscape"
   width="32"
   height="32"
   viewBox="0 0 31.999999 31.999998"
   id="svg2"
   version="1.1"
   inkscape:version="0.91 r13725"
   sodipodi:docname="favicon.svg"
   inkscape:export-filename="/Users/maloneyc/git/klortho/mathjax-server/static/favicon.png"
   inkscape:export-xdpi="96.749207"
   inkscape:export-ydpi="96.749207">
  <sodipodi:namedview
     id="base"
     pagecolor="#ffffff"
     bordercolor="#666666"
     borderopacity="1.0"
     inkscape:pageopacity="0.0"
     inkscape:pageshadow="2"
     inkscape:zoom="4"
     inkscape:cx="3.550041"
     inkscape:cy="-25.482374"
     inkscape:document-units="px"
     inkscape:current-layer="layer1"
     showgrid="false"
     inkscape:window-width="2556"
     inkscape:window-height="1395"
     inkscape:window-x="4"
     inkscape:window-y="1"
     inkscape:window-maximized="1"
     units="px"
     inkscape:snap-nodes="false" />
  <defs
     id="defs4" />
  <metadata
     id="metadata7">
    <rdf:RDF>
      <cc:Work
         rdf:about="">
        <dc:format>image/svg+xml</dc:format>
        <dc:type
           rdf:resource="http://purl.org/dc/dcmitype/StillImage" />
        <dc:title />
      </cc:Work>
    </rdf:RDF>
  </metadata>
  <g
     transform="translate(0,-1020.3622)"
     id="layer1"
     inkscape:groupmode="layer"
     inkscape:label="Layer 1">
    <text
       sodipodi:linespacing="125%"
       id="text3340"
       y="222.01682"
       x="180.81731"
       style="font-style:normal;font-weight:normal;font-size:40px;line-height:125%;font-family:Sans;letter-spacing:0px;word-spacing:0px;fill:#000000;fill-opacity:1;stroke:none;stroke-width:1px;stroke-linecap:butt;stroke-linejoin:miter;stroke-opacity:1"
       xml:space="preserve"><tspan
         y="222.01682"
         x="180.81731"
         id="tspan3342"
         sodipodi:role="line" /></text>
    <g
       transform="scale(0.64846019,1.5421147)"
       style="font-style:normal;font-variant:normal;font-weight:900;font-stretch:normal;font-size:26.7293663px;line-height:125%;font-family:'Cooper Std';-inkscape-font-specification:'Cooper Std, Heavy';text-align:start;letter-spacing:0px;word-spacing:0px;writing-mode:lr-tb;text-anchor:start;fill:#000000;fill-opacity:1;stroke:none;stroke-width:1px;stroke-linecap:butt;stroke-linejoin:miter;stroke-opacity:1"
       id="text3336">
      <path
         d="m 10.585349,666.9533 c 0.05346,-0.82861 0.02673,-1.44338 1.015716,-1.44338 1.550303,0 1.871056,1.33647 1.871056,2.64621 0,1.65722 -0.561317,2.61947 -2.298726,2.61947 -0.882069,0 -0.748422,-0.58804 -0.694963,-1.28301 l 0.106917,-2.53929 z m -6.3081303,8.98107 c 0,3.47482 -2.0047025,2.51256 -2.0047025,3.90249 0,1.95124 3.79557,1.95124 5.0785796,1.95124 4.3301572,0 4.9983912,-0.72169 4.9983912,-1.68395 0,-1.28301 -1.363197,-0.9088 -1.577032,-2.13835 -0.133647,-0.74842 -0.187106,-1.81759 -0.187106,-2.59275 0,-1.68395 0.213835,-1.76413 0.801881,-1.76413 1.470115,0 1.924514,1.20282 2.218538,2.43237 0.82861,3.52828 1.363197,5.98738 5.639896,5.98738 3.020418,0 4.249969,-1.06918 4.249969,-2.08489 0,-1.6305 -1.737409,-0.13365 -2.058161,-2.61948 -0.374211,-2.88677 -1.202822,-4.11632 -3.073877,-4.81129 -0.320753,-0.13364 -0.668234,-0.24056 -0.668234,-0.6415 0,-0.32075 0.187105,-0.40094 0.427669,-0.53459 1.496845,-0.72169 2.271997,-2.272 2.271997,-3.87576 0,-3.555 -3.501547,-4.89147 -6.521966,-4.89147 -0.85534,0 -1.737409,0.0535 -2.592748,0.0802 -0.882069,0.0535 -1.7374092,0.10691 -2.5927489,0.10691 -0.5345873,0 -1.095904,-0.0534 -1.6304913,-0.10691 -0.5613167,-0.0267 -1.095904,-0.0802 -1.6572207,-0.0802 -1.0691747,0 -3.1540653,0.1871 -3.1540653,1.65722 0,1.65722 2.0314319,-0.0535 2.0314319,4.08959 l 0,7.61787 z"
         style=""
         id="path3468" />
    </g>
    <g
       transform="matrix(1.038012,0,0,1.157988,0,-212.45062)"
       style="font-style:normal;font-variant:normal;font-weight:900;font-stretch:normal;font-size:16.12539482px;line-height:125%;font-family:'Cooper Std';-inkscape-font-specification:'Cooper Std, Heavy';text-align:start;letter-spacing:0px;word-spacing:0px;writing-mode:lr-tb;text-anchor:start;fill:#200772;fill-opacity:1;stroke:none;stroke-width:1px;stroke-linecap:butt;stroke-linejoin:miter;stroke-opacity:1"
       id="text3443">
      <path
         d="m 24.174367,1087.0729 c 0.112875,-0.1774 0.564374,-0.9675 0.773999,-0.9675 0.177375,0 0.16125,0.2096 0.16125,0.3225 0,0.7256 -0.258,2.4994 -0.515999,3.1444 -0.1935,0.4676 -1.080375,0.258 -1.080375,1.0481 0,1.0481 1.693124,1.0643 2.418749,1.0643 2.176875,0 3.563625,-0.2903 3.563625,-1.2094 0,-0.6289 -0.903,-0.4676 -0.903,-1.5319 0,-1.9027 0.22575,-3.8216 0.370875,-5.7082 0.22575,-1.8705 1.435125,-0.774 1.435125,-2.0318 0,-1.0642 -1.660875,-1.0804 -2.402625,-1.0804 -1.32225,0 -1.983375,0.129 -2.660625,1.3545 -0.209625,0.3709 -1.644749,3.2734 -2.160749,3.2734 -0.435375,0 -0.87075,-2.193 -1.306125,-3.2089 -0.48375,-1.1448 -0.725625,-1.419 -2.03175,-1.419 -3.225,0 -3.402375,0.9675 -3.402375,1.29 0,0.9998 1.3545,0.3387 1.338375,1.5803 -0.03225,1.806 -0.8385,4.3699 -1.564124,6.3049 -0.35475,0.9675 -1.25775,0.3225 -1.25775,1.419 0,0.9513 1.338374,0.9675 2.015624,0.9675 2.499375,0 2.709,-0.4999 2.709,-1.032 0,-0.6289 -0.790125,-0.4999 -0.790125,-1.2094 0,-0.4999 0.435375,-2.4833 0.467625,-2.6445 0.03225,-0.1129 0.09675,-0.6128 0.306375,-0.6128 0.1935,0 0.499875,1.0643 0.532125,1.1772 l 0.645,1.9511 c 0.145125,0.4192 0.274125,0.9675 0.822375,0.9675 0.516,0 1.015875,-0.8224 1.25775,-1.2094 l 1.25775,-1.9995 z"
         style="font-style:italic;font-variant:normal;font-weight:900;font-stretch:normal;font-size:16.12499809px;line-height:125%;font-family:'Cooper Std';-inkscape-font-specification:'Cooper Std, Heavy Italic';text-align:start;writing-mode:lr-tb;text-anchor:start;fill:#200772;fill-opacity:1"
         id="path3471"
         inkscape:connector-curvature="0" />
    </g>
    <text
       xml:space="preserve"
       style="font-style:normal;font-weight:normal;font-size:40px;line-height:125%;font-family:Sans;letter-spacing:0px;word-spacing:0px;fill:#000000;fill-opacity:1;stroke:none;stroke-width:1px;stroke-linecap:butt;stroke-linejoin:miter;stroke-opacity:1"
       x="21.071428"
       y="1029.8622"
       id="text3456"
       sodipodi:linespacing="125%"><tspan
         sodipodi:role="line"
         id="tspan3458"
         x="21.071428"
         y="1029.8622" /></text>
    <g
       style="font-style:normal;font-variant:normal;font-weight:900;font-stretch:normal;font-size:40px;line-height:125%;font-family:'Cooper Std';-inkscape-font-specification:'Cooper Std, Heavy';text-align:start;letter-spacing:0px;word-spacing:0px;writing-mode:lr-tb;text-anchor:start;fill:#000000;fill-opacity:1;stroke:none;stroke-width:1px;stroke-linecap:butt;stroke-linejoin:miter;stroke-opacity:1"
       id="text3343"
       transform="matrix(0.54695228,0.02059308,0,0.52338135,8.4859957,494.16231)">
      <path
         d="m 23.74,1022.9322 c 2.08,0 4.24,1.04 4.24,3.36 0,2.48 -2.84,3.84 -5.36,3.84 -2.52,0 -3.84,-0.72 -4.96,-0.72 -1.24,0 -2.24,0.88 -2.24,2.16 0,2.88 7.04,3.28 9.04,3.28 10.56,0 15.24,-5.32 15.24,-10.4 0,-6.96 -6.72,-5.64 -6.72,-7.08 0,-0.92 3,-1.64 3,-5.08 0,-4.24 -6.56,-5.24 -9.76,-5.24 -4.72,0 -10.28,2.28 -10.28,4.4 0,0.76 0.6,2.24 1.44,2.24 0.72,0 2.08,-1.4 4.04,-1.4 1.56,0 3.12,1.24 3.12,2.68 0,3.76 -5.36,3.56 -5.36,5.2 0,0.76 0.72,3.16 1.68,3.16 0.32,0 1.4,-0.4 2.88,-0.4 z"
         id="path3348"
         inkscape:connector-curvature="0" />
    </g>
    <path
       style="fill:#412c84;fill-opacity:1;stroke:none;stroke-width:0;stroke-miterlimit:4;stroke-dasharray:none;stroke-opacity:1"
       d="m 20.625568,15.683239 c -2.656032,-0.38969 -3.784507,-1.027356 -3.485471,-1.969534 0.144087,-0.453979 0.369136,-0.489274 2.866095,-0.449497 3.127739,0.04983 3.768849,-0.245455 3.768849,-1.735842 0,-1.273016 -0.781104,-1.845992 -2.516529,-1.845992 -1.45302,0 -1.787413,-0.1837593 -2.080733,-1.1434268 -0.133226,-0.435883 0.04401,-0.613259 1.113186,-1.1140317 1.888524,-0.884537 2.286904,-2.0213965 1.04944,-2.9947858 -0.688496,-0.541571 -0.845554,-0.5473652 -2.978162,-0.1098702 -0.656729,0.134725 -0.815389,0.074681 -0.953637,-0.360899 -0.217899,-0.6865398 -0.03698,-0.9385574 1.08449,-1.5106896 2.272682,-1.1594358 5.794961,-1.1575207 8.072493,0.00439 1.660206,0.8469738 1.94888,2.2783477 0.709452,3.5177755 -0.4125,0.4125 -0.75,0.8552647 -0.75,0.9839217 0,0.128657 0.590625,0.4955628 1.3125,0.8153465 1.556099,0.6893365 1.913668,1.071697 2.105041,2.2509923 0.502183,3.094589 -2.057916,5.376771 -6.417541,5.720872 -0.89375,0.07054 -2.198513,0.04411 -2.899473,-0.05873 z"
       id="path3350"
       inkscape:connector-curvature="0"
       transform="translate(0,1020.3622)" />
    <path
       style="fill:#3914af;fill-opacity:1;stroke:none;stroke-width:0;stroke-miterlimit:4;stroke-dasharray:none;stroke-opacity:1"
       d="M 10.903181,30.583241 C 10.081834,29.761894 9.6262572,27.991499 9.0517827,23.388614 8.5138907,19.078843 8.2790365,18.361056 7.4456257,18.479703 6.9125462,18.555594 6.900041,18.643328 6.900041,22.307374 c 0,3.169285 0.06775,3.845721 0.4375,4.368127 0.6164652,0.870978 0.5888782,2.855495 -0.048556,3.492928 C 6.2368975,31.220516 3.2875186,31.162851 2.349075,30.071846 1.4493402,29.025841 1.3848497,27.947751 2.128039,26.376779 l 0.647002,-1.367651 0,-9.097289 0,-9.0972888 L 2.1186864,5.5172885 C 1.6186789,4.5290412 1.500741,4.0152882 1.6235758,3.3605224 1.9242966,1.757543 2.3308924,1.6066464 6.3632925,1.6015103 c 4.2456005,-0.00541 4.6848685,0.1846717 5.8338125,2.5243959 0.665179,1.3545783 0.702936,1.6127518 0.702936,4.8064678 0,3.319051 -0.01416,3.405209 -0.854015,5.197274 l -0.854015,1.822275 0.549681,0.677725 c 1.000918,1.234076 1.504136,2.663365 1.781285,5.059376 0.150672,1.302592 0.333385,2.854584 0.406027,3.44887 0.07264,0.594287 0.348969,1.297412 0.614057,1.5625 0.916315,0.916315 0.439797,3.585575 -0.754172,4.22457 -0.873714,0.467597 -2.237939,0.306047 -2.885708,-0.341723 z M 8.173794,13.656127 C 8.5896695,13.19659 8.650041,12.726092 8.650041,9.9445507 8.650041,7.6122102 8.5581605,6.648512 8.3069297,6.3457977 7.8719035,5.821623 7.124769,5.8118912 6.9267882,6.3278202 6.719922,6.866905 6.733391,13.80739 6.9417082,14.015707 c 0.3036,0.3036 0.7497533,0.173392 1.2320863,-0.359581 z"
       id="path3352"
       inkscape:connector-curvature="0"
       transform="translate(0,1020.3622)"
       inkscape:export-xdpi="41.919998"
       inkscape:export-ydpi="41.919998" />
  </g>
</svg>
